<svg xmlns="http://www.w3.org/2000/svg" xmlns:xlink="http://www.w3.org/1999/xlink" fill="none" version="1.1" width="14" height="14" viewBox="0 0 14 14"><defs><clipPath id="master_svg0_2_80"><rect x="0" y="0" width="14" height="14" rx="0"/></clipPath></defs><g clip-path="url(#master_svg0_2_80)"><g><path d="M7.294287265625,14L6.705827265625,14C4.211637265625,14,2.189697265625,11.9781,2.189697265625,9.48387L2.189697265625,3.55816C2.189696848392,1.59304,3.7827372656250002,0,5.747857265625,0L8.252257265625001,0C10.217377265625,0,11.810417265625,1.59304,11.810417265625,3.55816L11.810417265625,9.48387C11.810417265625,11.9781,9.788477265625,14,7.294287265625,14ZM5.747857265625,1.09482C4.393017265625,1.09482,3.284517265625,2.20332,3.284517265625,3.55816L3.284517265625,9.48387C3.284517265625,11.3724,4.817267265625,12.9052,6.705827265625,12.9052L7.294287265625,12.9052C9.182857265625,12.9052,10.715597265625,11.3724,10.715597265625,9.48387L10.715597265625,3.55816C10.715597265625,2.20332,9.607097265625,1.09482,8.252257265625001,1.09482L5.747857265625,1.09482Z" fill="#1A1B28" fill-opacity="1"/></g><g><path d="M7.13000484375,6.609863984375L6.86998484375,6.609863984375C6.11417384375,6.609863984375,5.501464426517,5.997153984375,5.50146484375,5.241333984375L5.50146484375,3.229603984375C5.501464426517,2.4737929843749997,6.11417384375,1.861083984375,6.86998484375,1.861083984375L7.13000484375,1.861083984375C7.88582484375,1.861083775759,8.49853484375,2.4737929843749997,8.49853484375,3.229603984375L8.49853484375,5.241333984375C8.49853484375,5.997153984375,7.88582484375,6.609863984375,7.13000484375,6.609863984375ZM6.86998484375,2.955903984375C6.71882484375,2.955903984375,6.59628484375,3.078443984375,6.59628484375,3.229603984375L6.59628484375,5.241333984375C6.59628484375,5.392503984375,6.71882484375,5.515043984375,6.86998484375,5.515043984375L7.13000484375,5.515043984375C7.28117484375,5.515043984375,7.40371484375,5.392503984375,7.40371484375,5.241333984375L7.40371484375,3.229603984375C7.40371484375,3.078443984375,7.28117484375,2.955903984375,7.13000484375,2.955903984375L6.86998484375,2.955903984375Z" fill="#1A1B28" fill-opacity="1"/></g><g><path d="M7.00694953125,2.75083265625C6.70461953125,2.75083265625,6.45953953125,2.50575265625,6.45953953125,2.20342265625L6.45953953125,0.94438265625C6.45953953125,0.64205665625,6.70461953125,0.39697265625,7.00694953125,0.39697265625C7.30926953125,0.39697265625,7.55435953125,0.64205665625,7.55435953125,0.94438265625L7.55435953125,2.20342265625C7.55435953125,2.50575265625,7.30926953125,2.75083265625,7.00694953125,2.75083265625ZM5.80263953125,5.66579265625L2.94242953125,5.66579265625C2.64010353125,5.66579265625,2.39501953125,5.42070265625,2.39501953125,5.11838265625C2.39501953125,4.81605265625,2.64010353125,4.57097265625,2.94242953125,4.57097265625L5.80263953125,4.57097265625C6.10475953125,4.57126265625,6.3495195312499995,4.81626265625,6.3495195312499995,5.11838265625C6.3495195312499995,5.42049265625,6.10475953125,5.66549265625,5.80263953125,5.66579265625ZM11.03040953125,5.66579265625L8.17018953125,5.66579265625C7.86786953125,5.66579265625,7.62277953125,5.42070265625,7.62277953125,5.11838265625C7.62277953125,4.81605265625,7.86786953125,4.57097265625,8.17018953125,4.57097265625L11.03040953125,4.57097265625C11.33251953125,4.57126265625,11.57727953125,4.81626265625,11.57727953125,5.11838265625C11.57727953125,5.42049265625,11.33251953125,5.66549265625,11.03040953125,5.66579265625Z" fill="#1A1B28" fill-opacity="1"/></g></g></svg>