<svg xmlns="http://www.w3.org/2000/svg" xmlns:xlink="http://www.w3.org/1999/xlink" fill="none" version="1.1" width="16" height="16" viewBox="0 0 16 16"><g transform="matrix(1,-5.400848479553133e-8,5.400848479553133e-8,1,0,0)" style="opacity:0.5;"><g><path d="M8.54993527481079,8.006952624816895L11.205085274810791,11.170672624816895C11.277895274810792,11.257432624816895,11.216215274810791,11.389722624816894,11.10295527481079,11.389722624816894L10.355295274810791,11.389722624816894C10.30591527481079,11.389722624816894,10.25908527481079,11.367832624816895,10.227425274810791,11.329942624816894L7.999755274810791,8.665102624816894L5.772095274810791,11.329942624816894C5.740429274810791,11.367832624816895,5.6935972748107915,11.389722624816894,5.644223274810791,11.389722624816894L4.896565274810791,11.389722624816894C4.783302774810791,11.389722624816894,4.721622174810791,11.257432624816895,4.794433474810791,11.170672624816895L7.449585274810791,8.006952624816895L4.793218174810791,4.829281624816894C4.720653074810791,4.742475624816895,4.782374874810791,4.6104326248168945,4.895516274810791,4.6104326248168945L5.621695274810791,4.6104326248168945C5.670955274810791,4.6104326248168945,5.717692274810791,4.632223924816895,5.749359274810791,4.669956824816895L7.999755274810791,7.351402624816894L10.25015527481079,4.669956824816895C10.281825274810792,4.632223924816895,10.328565274810792,4.6104326248168945,10.37782527481079,4.6104326248168945L11.104005274810792,4.6104326248168945C11.217145274810791,4.6104326248168945,11.27886527481079,4.742475624816895,11.206295274810792,4.829281624816894L8.54993527481079,8.006952624816895Z" fill-rule="evenodd" fill="#000000" fill-opacity="0.44999998807907104"/></g></g></svg>