<svg xmlns="http://www.w3.org/2000/svg" xmlns:xlink="http://www.w3.org/1999/xlink" fill="none" version="1.1" width="16" height="16" viewBox="0 0 16 16"><defs><clipPath id="master_svg0_2_231428"><rect x="0" y="16" width="16" height="16" rx="0"/></clipPath></defs><g transform="matrix(0,-1,1,0,-16,16)" style="opacity:0.5;" clip-path="url(#master_svg0_2_231428)"><g transform="matrix(0,1,1,0,-14,14)"><path d="M5.529774,20.470226Q5.43624,20.376692,5.38562,20.254485Q5.335,20.132277,5.335,20Q5.335,19.9345032,5.347778,19.870265Q5.360556,19.806027,5.38562,19.745516Q5.410685,19.685004,5.447073,19.630546Q5.483461,19.576087,5.529774,19.529774Q5.576087,19.483461,5.630546,19.447073Q5.685004,19.410685,5.745516,19.38562Q5.806027,19.360556,5.870265,19.347778Q5.9345032,19.335,6,19.335Q6.132277,19.335,6.254485,19.38562Q6.376692,19.43624,6.470226,19.529774L6.471405,19.528595L10,23.05719L13.5286,19.528595L13.52977,19.529774Q13.62331,19.43624,13.745519999999999,19.38562Q13.86772,19.335,14,19.335Q14.0655,19.335,14.12973,19.347778Q14.19397,19.360556,14.25448,19.38562Q14.31499,19.410685,14.36945,19.447073Q14.42391,19.483461,14.47023,19.529774Q14.51654,19.576087,14.55293,19.630546Q14.58931,19.685004,14.61438,19.745516Q14.63944,19.806027,14.65222,19.870265Q14.665,19.9345032,14.665,20Q14.665,20.132277,14.61438,20.254485Q14.56376,20.376692,14.47023,20.470226L14.4714,20.471405L10.4714,24.4714Q10.42497,24.51783,10.37038,24.55431Q10.31578,24.59079,10.25512,24.61592Q10.19446,24.64105,10.13006,24.65386Q10.065660000000001,24.66667,10,24.66667Q9.93434,24.66667,9.86994,24.65386Q9.80554,24.64105,9.74488,24.61592Q9.68421,24.59079,9.62962,24.55431Q9.57502,24.51783,9.5286,24.4714L5.528595,20.471405L5.529774,20.470226Z" fill-rule="evenodd" fill="#000000" fill-opacity="0.44999998807907104"/></g></g></svg>