<svg xmlns="http://www.w3.org/2000/svg" xmlns:xlink="http://www.w3.org/1999/xlink" fill="none" version="1.1" width="16" height="16" viewBox="0 0 16 16"><defs><clipPath id="master_svg0_2_231430"><rect x="0" y="0" width="16" height="16" rx="0"/></clipPath></defs><g transform="matrix(0,1,1,0,0,0)" style="opacity:0.5;" clip-path="url(#master_svg0_2_231430)"><g transform="matrix(0,1,1,0,2,-2)"><path d="M5.529774,4.470226Q5.43624,4.376692,5.38562,4.254485Q5.335,4.132277,5.335,4Q5.335,3.9345032,5.347778,3.870265Q5.360556,3.806027,5.38562,3.745516Q5.410685,3.685004,5.447073,3.630546Q5.483461,3.5760870000000002,5.529774,3.529774Q5.576087,3.483461,5.630546,3.447073Q5.685004,3.410685,5.745516,3.38562Q5.806027,3.360556,5.870265,3.347778Q5.9345032,3.335,6,3.335Q6.132277,3.335,6.254485,3.38562Q6.376692,3.4362399999999997,6.470226,3.529774L6.471405,3.528595L10,7.05719L13.5286,3.528595L13.52977,3.529774Q13.62331,3.4362399999999997,13.745519999999999,3.38562Q13.86772,3.335,14,3.335Q14.0655,3.335,14.12973,3.347778Q14.19397,3.360556,14.25448,3.38562Q14.31499,3.410685,14.36945,3.447073Q14.42391,3.483461,14.47023,3.529774Q14.51654,3.5760870000000002,14.55293,3.630546Q14.58931,3.685004,14.61438,3.745516Q14.63944,3.806027,14.65222,3.870265Q14.665,3.9345032,14.665,4Q14.665,4.132277,14.61438,4.254485Q14.56376,4.376692,14.47023,4.470226L14.4714,4.471405L10.4714,8.4714Q10.42497,8.51783,10.37038,8.554310000000001Q10.31578,8.59079,10.25512,8.61592Q10.19446,8.64105,10.13006,8.65386Q10.065660000000001,8.66667,10,8.66667Q9.93434,8.66667,9.86994,8.65386Q9.80554,8.64105,9.74488,8.61592Q9.68421,8.59079,9.62962,8.554310000000001Q9.57502,8.51783,9.5286,8.4714L5.528595,4.471405L5.529774,4.470226Z" fill-rule="evenodd" fill="#000000" fill-opacity="0.44999998807907104"/></g></g></svg>