<svg xmlns="http://www.w3.org/2000/svg" xmlns:xlink="http://www.w3.org/1999/xlink" fill="none" version="1.1" width="14" height="14" viewBox="0 0 14 14"><defs><clipPath id="master_svg0_2_216061"><rect x="0" y="0" width="14" height="14" rx="0"/></clipPath></defs><g clip-path="url(#master_svg0_2_216061)"><g><path d="M11.69382265625,2.3343724999999997L11.69382265625,11.7031625L2.2860326562499997,11.7031625L2.2860326562499997,2.3343724999999997L11.69382265625,2.3343724999999997ZM1.24072265625,2.0296875L1.24072265625,12.0078625C1.24072265625,12.4171625,1.57197265625,12.7484625,1.98134765625,12.7484625L11.99852265625,12.7484625C12.40792265625,12.7484625,12.73912265625,12.4171625,12.73912265625,12.0078625L12.73912265625,2.0296875C12.73912265625,1.6203125,12.40792265625,1.2890625,11.99852265625,1.2890625L1.98134865625,1.2890625C1.57197365625,1.2890625,1.240723133087,1.6203125,1.24072265625,2.0296875Z" fill="#202A35" fill-opacity="1" style="mix-blend-mode:passthrough"/></g><g><path d="M4.3796875,10.168796328125C4.0874995,10.168796328125,3.8515625,9.932866328125,3.8515625,9.640676328125L3.8515625,7.546926328125C3.8515625,7.254736328125,4.0875005,7.018796328125,4.3796875,7.018796328125C4.6718745,7.018796328125,4.9078125,7.254736328125,4.9078125,7.546926328125L4.9078125,9.640676328125C4.9078125,9.931296328125,4.6703115,10.168796328125,4.3796875,10.168796328125ZM6.9890625,10.168796328125C6.6968725,10.168796328125,6.4609425,9.932866328125,6.4609425,9.640676328125L6.4609425,4.414111328125C6.4609425,4.121923328125,6.6968725,3.885986328125,6.9890625,3.885986328125C7.2812525,3.885986328125,7.5171825000000005,4.121924328125,7.5171825000000005,4.414111328125L7.5171825000000005,9.640676328125C7.5171825000000005,9.931296328125,7.2812525,10.168796328125,6.9890625,10.168796328125ZM9.6031225,10.168796328125C9.3109325,10.168796328125,9.0750025,9.932866328125,9.0750025,9.640676328125L9.0750025,6.504736328125C9.0750025,6.212546328125001,9.3109325,5.9766063281249995,9.6031225,5.9766063281249995C9.8953125,5.9766063281249995,10.1312525,6.212546328125001,10.1312525,6.504736328125L10.1312525,9.640676328125C10.1312525,9.931296328125,9.8937525,10.168796328125,9.6031225,10.168796328125Z" fill="#202A35" fill-opacity="1" style="mix-blend-mode:passthrough"/></g></g></svg>