<svg xmlns="http://www.w3.org/2000/svg" xmlns:xlink="http://www.w3.org/1999/xlink" fill="none" version="1.1" width="14" height="14" viewBox="0 0 14 14"><defs><clipPath id="master_svg0_2_216079"><rect x="0" y="0" width="14" height="14" rx="0"/></clipPath></defs><g clip-path="url(#master_svg0_2_216079)"><g><path d="M6.69385171875,7.6766774609375C6.57303171875,7.6766774609375,6.47510171875,7.5787474609375,6.47510171875,7.4579274609375L6.47510171875,1.1136474609375C6.47510171875,0.9928351609375,6.57303171875,0.8948974609375,6.69385171875,0.8948974609375L7.30635171875,0.8948974609375C7.42716171875,0.8948974609375,7.52510171875,0.9928351609375,7.52510171875,1.1136474609375L7.52510171875,7.4579274609375C7.52510171875,7.5787474609375,7.42716171875,7.6766774609375,7.30635171875,7.6766774609375L6.69385171875,7.6766774609375ZM3.43318171875,3.4437174609375Q4.128141718749999,2.7964074609375,4.95655171875,2.4201774609375C5.03657171875,2.3838374609375,5.08810171875,2.3053974609375,5.08810171875,2.2175174609374997L5.08810171875,1.4413014609375C5.08810171875,1.2790814609375,4.91877171875,1.1730474609375001,4.77511171875,1.2483964609375Q3.44697171875,1.9450074609375,2.69072171875,2.7012574609374997Q0.90576171875,4.4862174609375,0.90576171875,7.0105174609375Q0.90576171875,9.5348274609375,2.69072171875,11.3197974609375Q4.47567171875,13.1046974609375,6.99998171875,13.1046974609375Q9.52429171875,13.1046974609375,11.30926171875,11.3197974609375Q13.09416171875,9.5348274609375,13.09416171875,7.0105174609375Q13.09416171875,4.4862174609375,11.30926171875,2.7012574609374997Q10.22605171875,1.7068084609375,9.26145171875,1.2264164609375001C9.12127171875,1.1566054609375,8.96325171875,1.2624294609375,8.96325171875,1.4190274609375L8.96326171875,2.2174974609375C8.96326171875,2.3053774609374997,9.01457171875,2.3836974609375,9.09453171875,2.4201674609375Q9.91946171875,2.7963974609375,10.56678171875,3.4437174609375Q12.04416171875,4.9211374609375,12.04416171875,7.0105174609375Q12.04416171875,9.0999074609375,10.56678171875,10.5773274609375Q9.08937171875,12.0546974609375,6.99998171875,12.0546974609375Q4.91060171875,12.0546974609375,3.43318171875,10.5773274609375Q1.95576171875,9.0999074609375,1.95576171875,7.0105174609375Q1.95576171875,4.9211374609375,3.43318171875,3.4437174609375Z" fill-rule="evenodd" fill="#1A1B28" fill-opacity="1"/></g></g></svg>