<svg xmlns="http://www.w3.org/2000/svg" xmlns:xlink="http://www.w3.org/1999/xlink" fill="none" version="1.1" width="14" height="14" viewBox="0 0 14 14"><defs><clipPath id="master_svg0_2_191452"><rect x="0" y="0" width="14" height="14" rx="0"/></clipPath></defs><g clip-path="url(#master_svg0_2_191452)"><g><path d="M0.7875243425497132,11.788441896820068L0.7875243425497132,2.2118158968200685Q0.7875243425497132,1.9037448968200683,1.005364034549713,1.6859058968200684Q1.2232030345497131,1.4680662751200684,1.5312740345497131,1.4680662751200684L12.468822034549714,1.4680662751200684Q12.776822034549713,1.4680662751200684,12.994722034549714,1.6859058968200684Q13.212522034549712,1.9037458968200682,13.212522034549712,2.2118158968200685L13.212522034549712,11.788441896820068Q13.212522034549712,12.096541896820069,12.994722034549714,12.314341896820068Q12.776822034549713,12.532141896820068,12.468822034549714,12.532141896820068L1.5312740345497131,12.532141896820068Q1.2232040345497133,12.532141896820068,1.005364034549713,12.314341896820068Q0.7875243425497132,12.096541896820069,0.7875243425497132,11.788441896820068ZM1.8375220345497132,11.788441896820068Q1.8375220345497132,11.482141896820067,1.5312740345497131,11.482141896820067L12.468822034549714,11.482141896820067Q12.341922034549713,11.482141896820067,12.252222034549714,11.571841896820068Q12.162522034549713,11.661541896820069,12.162522034549713,11.788441896820068L12.162522034549713,2.2118158968200685Q12.162522034549713,2.3386698968200683,12.252222034549714,2.4283678968200686Q12.341922034549713,2.5180618968200683,12.468822034549714,2.5180618968200683L1.5312740345497131,2.5180618968200683Q1.8375220345497132,2.5180618968200683,1.8375220345497132,2.2118158968200685L1.8375220345497132,11.788441896820068Z" fill="#000000" fill-opacity="0.8799999952316284"/></g><g><path d="M3.847581,4.628292L6.5395,6.58997C6.654389999999999,6.6737,6.66015,6.84304,6.55123,6.93438L3.859308,9.191749999999999C3.716955,9.31113,3.5,9.20992,3.5,9.02414L3.5,8.22452C3.5,8.15989,3.5285846,8.098559999999999,3.5780843,8.057L4.84653,6.99192C4.95506,6.900790000000001,4.9496199999999995,6.7321,4.83545,6.64816L3.5891678,5.73181C3.5331061,5.69059,3.5,5.62515,3.5,5.5555699999999995L3.5,4.805081C3.5,4.6262039999999995,3.703017,4.522944,3.847581,4.628292" fill-rule="evenodd" fill="#000000" fill-opacity="0.8799999952316284"/></g><g><rect x="7" y="8.75" width="3.5" height="0.875" rx="0.21875" fill="#000000" fill-opacity="0.8799999952316284"/></g></g></svg>