<svg xmlns="http://www.w3.org/2000/svg" xmlns:xlink="http://www.w3.org/1999/xlink" fill="none" version="1.1" width="14" height="14" viewBox="0 0 14 14"><defs><clipPath id="master_svg0_2_216018"><rect x="0" y="0" width="14" height="14" rx="0"/></clipPath></defs><g clip-path="url(#master_svg0_2_216018)"><g><path d="M7,1.640625C7,1.5802188,7.0489689,1.53125,7.109375,1.53125L11.26562,1.53125C11.32603,1.53125,11.375,1.5802188,11.375,1.640625L11.375,2.296875C11.375,2.357281,11.32603,2.40625,11.26562,2.40625L7.109375,2.40625C7.0489689,2.40625,7,2.357281,7,2.296875L7,1.640625ZM7,11.70315C7,11.64275,7.0489689,11.59375,7.109375,11.59375L11.26562,11.59375C11.32603,11.59375,11.375,11.64275,11.375,11.70315L11.375,12.35935C11.375,12.41975,11.32603,12.46875,11.26562,12.46875L7.109375,12.46875C7.0489689,12.46875,7,12.41975,7,12.35935L7,11.70315Z" fill="#000000" fill-opacity="1" style="mix-blend-mode:passthrough"/></g><g><path d="M8.75,2.3515625L9.625,2.3515625L9.625,11.8125025L8.75,11.8125025L8.75,2.3515625ZM7.875,3.5000025L1.09375,3.5000025C0.9729317,3.5000025,0.875,3.5979324999999998,0.875,3.7187525L0.875,10.2812525C0.875,10.4020725,0.9729317,10.5000025,1.09375,10.5000025L7.875,10.5000025C7.93541,10.5000025,7.98438,10.4510325,7.98438,10.3906225L7.98438,9.6250025C7.98438,9.5645925,7.93541,9.5156225,7.875,9.5156225L1.859375,9.5156225L1.859375,4.4843725L7.875,4.4843725C7.93541,4.4843725,7.98438,4.4354025,7.98438,4.3750025L7.98438,3.6093725C7.98438,3.5489725,7.93541,3.5000025,7.875,3.5000025ZM10.52734,9.5156225L12.1406,9.5156225L12.1406,4.4843725L10.52734,4.4843725L10.52734,4.4809325C10.48018,4.4687925,10.44531,4.4259725,10.44531,4.3750025L10.44531,3.6093725C10.44531,3.5584024999999997,10.48018,3.5155825,10.52734,3.5034425000000002L10.52734,3.5000025L12.9062,3.5000025C13.0271,3.5000025,13.125,3.5979324999999998,13.125,3.7187525L13.125,10.2812525C13.125,10.4020725,13.0271,10.5000025,12.9062,10.5000025L10.52734,10.5000025C10.46694,10.5000025,10.41797,10.4510325,10.41797,10.3906225L10.41797,9.6250025C10.41797,9.5645925,10.46694,9.5156225,10.52734,9.5156225Z" fill="#000000" fill-opacity="1" style="mix-blend-mode:passthrough"/></g></g></svg>