<svg xmlns="http://www.w3.org/2000/svg" xmlns:xlink="http://www.w3.org/1999/xlink" fill="none" version="1.1" width="14" height="14" viewBox="0 0 14 14"><defs><clipPath id="master_svg0_2_216033"><rect x="0" y="0" width="14" height="14" rx="0"/></clipPath></defs><g clip-path="url(#master_svg0_2_216033)"><g><g><path d="M11.534356500148773,3.4506512890625L12.175356500148773,2.9592112890625C12.284756500148774,2.8753712890625,12.442756500148773,2.9535112890625,12.442456500148774,3.0913012890625L12.438056500148774,5.3670412890625C12.437856500148774,5.4760012890625,12.334456500148773,5.5552312890625,12.229256500148773,5.5271512890625L10.030326500148773,4.9407212890625C9.897186500148774,4.9052212890625,9.862736500148774,4.7323612890625,9.972076500148773,4.6485212890625L10.701076500148773,4.0895812890625Q10.527986500148772,3.8697612890625,10.329086500148772,3.6708612890625Q8.950046500148773,2.2918212890625,6.999786500148773,2.2918212890625Q5.049526500148773,2.2918212890625,3.670486500148773,3.6708612890625Q3.018586500148773,4.3227712890625,2.661236500148773,5.167621289062501Q2.4802665001487734,5.5954912890625,2.3871165001487733,6.0507112890625Q2.313336500148773,6.4112712890625,2.296456500148773,6.7804212890625C2.2909365001487734,6.9011112890625,2.193512500148773,7.0001612890625,2.0727005001487733,7.0001612890625L1.4602005001487732,7.0001612890625C1.3393880001487732,7.0001612890625,1.2410375901487731,6.9008712890625,1.2455628641487733,6.7801412890625Q1.2633842001487732,6.3046912890625,1.3584315001487732,5.8402112890625Q1.4725225001487732,5.2826612890625,1.6941845001487732,4.7585912890625Q2.1313055001487733,3.7251212890625,2.928026500148773,2.9284012890625Q4.614606500148773,1.2418212890625,6.999786500148773,1.2418212890625Q9.384966500148773,1.2418212890625,11.071546500148774,2.9284012890625Q11.319356500148773,3.1762012890625,11.534356500148773,3.4506512890625ZM2.443256500148773,10.5215112890625L1.7860405001487734,11.0254112890625C1.6766945001487732,11.1092512890625,1.5187035001487732,11.0311112890625,1.5189705001487732,10.8933212890625L1.5233785001487732,8.6175812890625C1.5235895001487731,8.5086212890625,1.6269225001487733,8.429391289062501,1.732205500148773,8.4574712890625L3.931096500148773,9.0438912890625C4.064226500148774,9.079401289062499,4.098686500148773,9.2522612890625,3.9893365001487733,9.3361012890625L3.276536500148773,9.8826212890625Q3.4589065001487733,10.1178812890625,3.670486500148773,10.3294612890625Q5.049526500148773,11.7085212890625,6.999786500148773,11.7085212890625Q8.950046500148773,11.7085212890625,10.329086500148772,10.3294612890625Q11.630556500148773,9.0279912890625,11.703756500148772,7.2177512890625C11.708656500148773,7.0970412890625,11.806056500148774,7.0001612890625,11.926856500148773,7.0001612890625L12.539356500148774,7.0001612890625C12.660156500148773,7.0001612890625,12.758556500148773,7.0970812890625,12.754556500148773,7.2178212890625Q12.680656500148773,9.4628212890625,11.071546500148774,11.0719212890625Q9.384966500148773,12.7585212890625,6.999786500148773,12.7585212890625Q4.614606500148773,12.7585212890625,2.928026500148773,11.0719212890625Q2.6675465001487733,10.8114412890625,2.443256500148773,10.5215112890625Z" fill-rule="evenodd" fill="#1A1B28" fill-opacity="1"/></g></g></g></svg>