<svg xmlns="http://www.w3.org/2000/svg" xmlns:xlink="http://www.w3.org/1999/xlink" fill="none" version="1.1" width="16" height="16" viewBox="0 0 16 16"><defs><clipPath id="master_svg0_18_5095"><rect x="0" y="0" width="16" height="16" rx="0"/></clipPath></defs><g clip-path="url(#master_svg0_18_5095)"><g><path d="M4.95740162109375,12.65041640625C5.39043162109375,12.78841640625,5.64568162109375,12.84971640625,5.92235162109375,12.87691640625Q6.89261162109375,13.53651640625,7.47500162109375,13.75581640625Q8.16594162109375,14.01591640625,9.18577162109375,14.01601640625Q10.32318162109375,14.01601640625,11.19831162109375,13.78861640625L12.96321162109375,14.45391640625Q13.37301162109375,14.60841640625,13.73321162109375,14.35931640625Q14.09341162109375,14.11011640625,14.09331162109375,13.67221640625L14.09331162109375,11.57591640625Q14.28781162109375,11.18277640625,14.51751162109375,10.67046640625Q14.97811162109375,9.64343640625,14.97811162109375,8.51872640625Q14.97811162109375,6.23134640625,13.26901162109375,4.6193564062500005Q12.46721162109375,3.86311640625,11.42921162109375,3.4490364062500003Q11.08501162109375,3.31172640625,10.83983162109375,3.23682640625C9.80175162109375,2.15805740625,8.34319162109375,1.48681640625,6.72784162109375,1.48681640625C3.57654162109375,1.48681640625,1.02191162109375,4.0414464062499995,1.02191162109375,7.19274640625C1.02191162109375,7.98057640625,1.18157662109375,8.73110640625,1.47031162109375,9.41375640625Q1.75904762109375,10.09640640625,2.0848416210937497,10.60973640625L2.18120162109375,13.17431640625C2.18737162109375,13.33851640625,2.34743162109375,13.45221640625,2.5044416210937497,13.40391640625L4.95740162109375,12.65041640625ZM11.23381162109375,7.19274640625Q11.23381162109375,5.326326406250001,9.91402162109375,4.00657640625Q8.59426162109375,2.68681640625,6.72784162109375,2.68681640625Q4.861421621093751,2.68681640625,3.54167162109375,4.00657640625Q2.22191162109375,5.326326406250001,2.22191162109375,7.19274640625Q2.22191162109375,8.11027640625,2.57552162109375,8.94629640625Q2.8255116210937503,9.53734640625,3.09802162109375,9.96672640625L3.27181162109375,10.24057640625L3.33393162109375,11.89381640625L4.96401162109375,11.39300640625L5.32184162109375,11.50711640625Q5.92296162109375,11.69871640625,6.72784162109375,11.69871640625Q8.59426162109375,11.69871640625,9.91402162109375,10.37892640625Q11.23381162109375,9.05916640625,11.23381162109375,7.19274640625ZM12.43381162109375,7.19274640625C12.43381162109375,6.48062640625,12.30331162109375,5.79897640625,12.06501162109375,5.17038640625Q12.26311162109375,5.320226406250001,12.44561162109375,5.49232640625Q13.77811162109375,6.74908640625,13.77811162109375,8.51872640625Q13.77811162109375,9.38668640625,13.42261162109375,10.17943640625Q13.16551162109375,10.75265640625,12.95781162109375,11.16375640625L12.89331162109375,11.29136640625L12.89331162109375,13.14521640625L11.24781162109375,12.52481640625L11.05331162109375,12.58331640625Q10.27936162109375,12.81601640625,9.18577162109375,12.81601640625Q8.59084162109375,12.81591640625,8.16945162109375,12.71501640625C10.62278162109375,12.07631640625,12.43381162109375,9.84603640625,12.43381162109375,7.19274640625ZM4.31615162109375,8.19308640625Q4.38509162109375,8.19308640625,4.45271162109375,8.179636406250001Q4.520331621093749,8.166186406249999,4.58403162109375,8.139806406249999Q4.6477216210937495,8.11342640625,4.70505162109375,8.07511640625Q4.762371621093751,8.03681640625,4.811121621093751,7.98806640625Q4.85987162109375,7.93931640625,4.89818162109375,7.88198640625Q4.936481621093749,7.82466640625,4.96286162109375,7.76096640625Q4.98925162109375,7.69727640625,5.00270162109375,7.62965640625Q5.01615162109375,7.56203640625,5.01615162109375,7.49308640625Q5.01615162109375,7.42414640625,5.00270162109375,7.35652640625Q4.98925162109375,7.28890640625,4.96286162109375,7.22521640625Q4.936481621093749,7.16151640625,4.89818162109375,7.10418640625Q4.85987162109375,7.04686640625,4.811121621093751,6.99811640625Q4.762371621093751,6.94936640625,4.70505162109375,6.91105640625Q4.6477216210937495,6.87275640625,4.58403162109375,6.84637640625Q4.520331621093749,6.81999640625,4.45271162109375,6.80653640625Q4.38509162109375,6.79308640625,4.31615162109375,6.79308640625Q4.24720162109375,6.79308640625,4.1795816210937495,6.80653640625Q4.111971621093749,6.81999640625,4.04827162109375,6.84637640625Q3.98457162109375,6.87275640625,3.92725162109375,6.91106640625Q3.86992162109375,6.94936640625,3.82117162109375,6.99811640625Q3.77242162109375,7.04686640625,3.73412162109375,7.10418640625Q3.69582162109375,7.16151640625,3.66943162109375,7.22521640625Q3.64305162109375,7.28890640625,3.62960162109375,7.35652640625Q3.61615162109375,7.42414640625,3.61615162109375,7.49308640625Q3.61615162109375,7.56203640625,3.62960162109375,7.62965640625Q3.64305162109375,7.69727640625,3.66943162109375,7.76096640625Q3.69582162109375,7.82466640625,3.73412162109375,7.88198640625Q3.77242162109375,7.93931640625,3.82117162109375,7.98806640625Q3.86992162109375,8.03681640625,3.92725162109375,8.07511640625Q3.98457162109375,8.11342640625,4.04827162109375,8.139806406249999Q4.111971621093749,8.166186406249999,4.1795816210937495,8.179636406250001Q4.24720162109375,8.19308640625,4.31615162109375,8.19308640625ZM6.72801162109375,8.19308640625Q6.79696162109375,8.19308640625,6.86458162109375,8.179636406250001Q6.93220162109375,8.166186406249999,6.99589162109375,8.139806406249999Q7.05959162109375,8.11342640625,7.11691162109375,8.07511640625Q7.17424162109375,8.03681640625,7.22299162109375,7.98806640625Q7.27174162109375,7.93931640625,7.31004162109375,7.88198640625Q7.34834162109375,7.82466640625,7.37473162109375,7.76096640625Q7.40111162109375,7.69727640625,7.41456162109375,7.62965640625Q7.42801162109375,7.56203640625,7.42801162109375,7.49308640625Q7.42801162109375,7.42414640625,7.41456162109375,7.35652640625Q7.40111162109375,7.28890640625,7.37473162109375,7.22521640625Q7.34834162109375,7.16151640625,7.31004162109375,7.10418640625Q7.27174162109375,7.04686640625,7.22299162109375,6.99811640625Q7.17424162109375,6.94936640625,7.11691162109375,6.91105640625Q7.05959162109375,6.87275640625,6.99589162109375,6.84637640625Q6.93220162109375,6.81999640625,6.86458162109375,6.80653640625Q6.79696162109375,6.79308640625,6.72801162109375,6.79308640625Q6.65907162109375,6.79308640625,6.59145162109375,6.80653640625Q6.52383162109375,6.81999640625,6.46013162109375,6.84637640625Q6.39644162109375,6.87275640625,6.33911162109375,6.91106640625Q6.28179162109375,6.94936640625,6.23304162109375,6.99811640625Q6.18429162109375,7.04686640625,6.14598162109375,7.10418640625Q6.10768162109375,7.16151640625,6.08130162109375,7.22521640625Q6.05491162109375,7.28890640625,6.04146162109375,7.35652640625Q6.02801162109375,7.42414640625,6.02801162109375,7.49308640625Q6.02801162109375,7.56203640625,6.04146162109375,7.62965640625Q6.05491162109375,7.69727640625,6.08130162109375,7.76096640625Q6.10768162109375,7.82466640625,6.14598162109375,7.88198640625Q6.18429162109375,7.93931640625,6.23304162109375,7.98806640625Q6.28179162109375,8.03681640625,6.33911162109375,8.07511640625Q6.39644162109375,8.11342640625,6.46013162109375,8.139806406249999Q6.52383162109375,8.166186406249999,6.59145162109375,8.179636406250001Q6.65907162109375,8.19308640625,6.72801162109375,8.19308640625ZM9.13963162109375,8.19308640625Q9.20858162109375,8.19308640625,9.27620162109375,8.179636406250001Q9.34382162109375,8.166186406249999,9.40751162109375,8.139806406249999Q9.47121162109375,8.11342640625,9.52853162109375,8.07511640625Q9.58586162109375,8.03681640625,9.63461162109375,7.98806640625Q9.68336162109375,7.93931640625,9.72166162109375,7.88198640625Q9.75996162109375,7.82466640625,9.78635162109375,7.76096640625Q9.81273162109375,7.69727640625,9.82618162109375,7.62965640625Q9.83963162109375,7.56203640625,9.83963162109375,7.49308640625Q9.83963162109375,7.42414640625,9.82618162109375,7.35652640625Q9.81273162109375,7.28890640625,9.78635162109375,7.22521640625Q9.75997162109375,7.16151640625,9.72166162109375,7.10418640625Q9.68336162109375,7.04686640625,9.63461162109375,6.99811640625Q9.58586162109375,6.94936640625,9.52853162109375,6.91105640625Q9.47121162109375,6.87275640625,9.40751162109375,6.84637640625Q9.34382162109375,6.81999640625,9.27620162109375,6.80653640625Q9.20858162109375,6.79308640625,9.13963162109375,6.79308640625Q9.07069162109375,6.79308640625,9.00307162109375,6.80653640625Q8.935451621093751,6.81999640625,8.87175162109375,6.84637640625Q8.80806162109375,6.87275640625,8.750731621093749,6.91106640625Q8.69341162109375,6.94936640625,8.64466162109375,6.99811640625Q8.59591162109375,7.04686640625,8.55761162109375,7.10418640625Q8.51930162109375,7.16151640625,8.49292162109375,7.22521640625Q8.46653162109375,7.28890640625,8.45308162109375,7.35652640625Q8.43963162109375,7.42414640625,8.43963162109375,7.49308640625Q8.43963162109375,7.56203640625,8.45308162109375,7.62965640625Q8.46653162109375,7.69727640625,8.49292162109375,7.76096640625Q8.51930162109375,7.82466640625,8.557601621093749,7.88198640625Q8.59591162109375,7.93931640625,8.64466162109375,7.98806640625Q8.69341162109375,8.03681640625,8.75074162109375,8.07511640625Q8.80806162109375,8.11342640625,8.87175162109375,8.139806406249999Q8.935451621093751,8.166186406249999,9.00307162109375,8.179636406250001Q9.07069162109375,8.19308640625,9.13963162109375,8.19308640625Z" fill-rule="evenodd" fill="#000000" fill-opacity="0.8799999952316284"/></g></g></svg>