<svg xmlns="http://www.w3.org/2000/svg" xmlns:xlink="http://www.w3.org/1999/xlink" fill="none" version="1.1" width="14" height="14" viewBox="0 0 14 14"><defs><clipPath id="master_svg0_2_215927"><rect x="0" y="0" width="14" height="14" rx="0"/></clipPath></defs><g clip-path="url(#master_svg0_2_215927)"><g><path d="M11.31256,6.40521L2.5795,6.40521C2.259451,6.40521,2,6.6741,2,7.00579C2,7.33748,2.259451,7.60637,2.5795,7.60637L11.31256,7.60637C11.66952,7.6765,12,7.39283,12,7.0163C12,6.63976,11.66952,6.35609,11.31256,6.42623L11.31256,6.40521ZM5.572620000000001,3.24917C5.72364,3.24772,5.86815,3.18523,5.97537,3.075L6.37812,2.6576L6.37812,5.05991C6.31045,5.42986,6.58416,5.77235,6.94748,5.77235C7.3108,5.77235,7.58451,5.42986,7.51684,5.05991L7.51684,2.6576L7.92249,3.075C8.02755,3.18309,8.16855,3.24541,8.31655,3.24917C8.46757,3.24772,8.612079999999999,3.18523,8.7193,3.075C8.93455,2.8426,8.93455,2.47559,8.7193,2.2432L7.93987,1.432417C7.71113,1.1996660000000001,7.41273,1.0545722,7.0938,1.0210203C7.04651,1.00794289,6.99786,1.000884155,6.94893,1C6.9019,1.000884876,6.85516,1.00794798,6.80985,1.0210203C6.48256,1.0484588,6.17494,1.194048,5.9406,1.432417L5.16117,2.2432C5.00881,2.41538,4.96662,2.6635,5.0530100000000004,2.87929C5.13941,3.09507,5.338699999999999,3.23935,5.5639199999999995,3.24917L5.572620000000001,3.24917ZM7.91669,10.93958L7.50815,11.363L7.50815,8.96067C7.45628,8.67717,7.21721,8.47196,6.93879,8.47196C6.66036,8.47196,6.42129,8.67717,6.36943,8.96067L6.36943,11.363L5.96957,10.93958C5.74496,10.71457,5.38868,10.71457,5.164070000000001,10.93958C4.9488199999999996,11.172,4.9488199999999996,11.539,5.164070000000001,11.7714L5.94639,12.5822C6.17885,12.8238,6.48733,12.9709,6.81564,12.9966C6.85415,13.0011,6.89304,13.0011,6.93154,12.9966C7.30589,12.9977,7.665,12.8429,7.92828,12.5671L8.710609999999999,11.7594C8.868089999999999,11.5208,8.839310000000001,11.1999,8.64212,10.99554C8.44493,10.79117,8.13525,10.76135,7.9051,10.92456L7.91669,10.93958Z" fill="#231815" fill-opacity="1" style="mix-blend-mode:passthrough"/></g></g></svg>