<svg xmlns="http://www.w3.org/2000/svg" xmlns:xlink="http://www.w3.org/1999/xlink" fill="none" version="1.1" width="14" height="14" viewBox="0 0 14 14"><defs><clipPath id="master_svg0_2_219786"><rect x="0" y="0" width="14" height="14" rx="0"/></clipPath></defs><g clip-path="url(#master_svg0_2_219786)"><g><path d="M7,13.125C6.17329,13.125,5.37169,12.9627,4.615270000000001,12.643C3.88562,12.3351,3.23128,11.8933,2.66899,11.331C2.10669,10.76871,1.664891,10.11438,1.356967,9.38473C1.037329,8.62999,0.875,7.82671,0.875,7C0.875,6.17329,1.037329,5.37169,1.356967,4.615270000000001C1.664891,3.88562,2.10669,3.23128,2.66899,2.66899C3.23128,2.10669,3.88562,1.664891,4.615270000000001,1.356967C5.37001,1.037329,6.17329,0.875,7,0.875C7.82671,0.875,8.628309999999999,1.037329,9.38473,1.356967C10.11438,1.664891,10.76872,2.10669,11.331,2.66899C11.8933,3.23128,12.3351,3.88562,12.643,4.615270000000001C12.9627,5.37001,13.125,6.17329,13.125,7C13.125,7.82671,12.9627,8.628309999999999,12.643,9.38473C12.3351,10.11438,11.8933,10.76872,11.331,11.331C10.76872,11.8933,10.11438,12.3351,9.38473,12.643C8.62999,12.9627,7.82671,13.125,7,13.125ZM7,2.07992C4.28726,2.07992,2.07992,4.28726,2.07992,7C2.07992,9.71274,4.28726,11.9201,7,11.9201C9.71274,11.9201,11.9201,9.71274,11.9201,7C11.9201,4.28726,9.71274,2.07992,7,2.07992Z" fill="#1A1B28" fill-opacity="1"/></g><g><path d="M5.65283203125,9.5035453125L9.67090203125,6.8995753125L5.65283203125,4.2939453125L5.65283203125,9.5035453125Z" fill="#1A1B28" fill-opacity="1"/></g></g></svg>