<svg xmlns="http://www.w3.org/2000/svg" xmlns:xlink="http://www.w3.org/1999/xlink" fill="none" version="1.1" width="14" height="14" viewBox="0 0 14 14"><defs><clipPath id="master_svg0_2_215871"><rect x="0" y="0" width="14" height="14" rx="0"/></clipPath></defs><g clip-path="url(#master_svg0_2_215871)"><g><path d="M11.283579296875,12.755894140625L2.694869296875,12.755894140625C1.689990296875,12.755894140625,0.873779296875,11.938294140625,0.873779296875,10.934814140625L0.873779296875,3.165084140625C0.873779296875,2.160205140625,1.6913572968750001,1.343994140625,2.694869296875,1.343994140625L11.283579296875,1.343994140625C12.288379296875,1.343994140625,13.104679296875,2.161572140625,13.104679296875,3.165084140625L13.104679296875,10.934814140625C13.104679296875,11.938294140625,12.287079296875,12.755894140625,11.283579296875,12.755894140625ZM2.694819296875,2.500004140625C2.365329296875,2.500004140625,1.999999296875,2.834184140625,1.999999296875,3.165034140625L1.999999296875,10.934814140625C1.999999296875,11.264304140625,2.363969296875,11.499994140625,2.694819296875,11.499994140625L11.283479296875,11.499994140625C11.612979296875,11.499994140625,11.999979296875,11.265674140625,11.999979296875,10.934814140625L11.999979296875,3.165034140625C11.999979296875,2.835544140625,11.614279296875,2.500004140625,11.283479296875,2.500004140625L2.694819296875,2.500004140625Z" fill="#1A1B28" fill-opacity="1"/></g><g><path d="M3.9880909375,3.910303234375Q3.9880909375,3.971706234375,3.9761109375,4.031929234375Q3.9641309375000002,4.092153234375,3.9406309375,4.148882234375Q3.9171309375,4.205611234375,3.8830209375,4.256666234375Q3.8489009375,4.307725234375,3.8054809375,4.3511352343750005Q3.7620709375,4.394555234375,3.7110119375,4.4286752343749995Q3.6599569375,4.462785234375,3.6032279375,4.486285234375Q3.5464979375,4.509785234375,3.4862749375,4.521765234375Q3.4260519375,4.533745234375,3.3646489375,4.533745234375Q3.3032449375,4.533745234375,3.2430219375,4.521765234375Q3.1827989375,4.509785234375,3.1260689375,4.486285234375Q3.0693399375,4.462785234375,3.0182849375,4.4286752343749995Q2.9672299375,4.394555234375,2.9238119375,4.3511352343750005Q2.8803929375,4.307725234375,2.8462789375,4.256666234375Q2.8121653375,4.205611234375,2.7886673375,4.148882234375Q2.7651693375,4.092152234375,2.7531901375,4.031929234375Q2.7412109375,3.971706234375,2.7412109375,3.910303234375Q2.7412109375,3.848899234375,2.7531901375,3.788676234375Q2.7651693375,3.728453234375,2.7886673375,3.671723234375Q2.8121653375,3.614994234375,2.8462789375,3.563939234375Q2.8803929375,3.512884234375,2.9238119375,3.469466234375Q2.9672299375,3.426047234375,3.0182849375,3.391933234375Q3.0693399375,3.357819634375,3.1260689375,3.334321634375Q3.1827989375,3.310823634375,3.2430219375,3.298844434375Q3.3032449375,3.286865234375,3.3646489375,3.286865234375Q3.4260519375,3.286865234375,3.4862749375,3.298844434375Q3.5464989375,3.310823634375,3.6032279375,3.334321634375Q3.6599569375,3.357819634375,3.7110119375,3.391933234375Q3.7620709375,3.426047234375,3.8054809375,3.469466234375Q3.8489009375,3.512884234375,3.8830209375,3.563939234375Q3.9171309375,3.614994234375,3.9406309375,3.671723234375Q3.9641309375000002,3.728453234375,3.9761109375,3.788676234375Q3.9880909375,3.848899234375,3.9880909375,3.910303234375Z" fill="#1A1B28" fill-opacity="1"/></g><g><path d="M5.661904921875,3.910518234375Q5.661904921875,3.971942234375,5.649924921875,4.032186234375Q5.637944921875,4.092430234375,5.6144349218750005,4.149179234375Q5.590924921875,4.2059282343749995,5.5567949218749995,4.257001234375Q5.522674921875,4.308075234375,5.479234921875,4.351505234375Q5.435804921875,4.394945234375,5.384727921875,4.429065234375Q5.333652921875,4.463195234375,5.276901921875,4.486695234375Q5.220151921875,4.510205234375,5.159904921875,4.522185234375Q5.099658921875,4.534175234375,5.038231921875,4.534175234375Q4.976805921875,4.534175234375,4.916558921875,4.522185234375Q4.856312921875,4.510205234375,4.799561921875,4.486695234375Q4.742810921875,4.463195234375,4.691736921875,4.429065234375Q4.640662921875,4.394945234375,4.597226921875,4.351505234375Q4.553791921875,4.308075234375,4.519664921875,4.257000234375Q4.485538521875,4.2059282343749995,4.462031521875,4.149179234375Q4.438524621875,4.092430234375,4.426540821875,4.032186234375Q4.414557098875,3.971942234375,4.414557098875,3.910518234375Q4.414557098875,3.849093234375,4.426540821875,3.788849234375Q4.438524621875,3.7286052343750002,4.462031521875,3.671856234375Q4.485538521875,3.615107234375,4.519664921875,3.564035234375Q4.553791921875,3.512962234375,4.597226921875,3.469529234375Q4.640662921875,3.426095234375,4.691736921875,3.391969234375Q4.742810921875,3.357844034375,4.799561921875,3.334337934375Q4.856312921875,3.310831834375,4.916558921875,3.298848534375Q4.976805921875,3.286865234375,5.038231921875,3.286865234375Q5.099658921875,3.286865234375,5.159904921875,3.298848534375Q5.220151921875,3.310831834375,5.276901921875,3.334337934375Q5.333652921875,3.357844034375,5.384727921875,3.391969234375Q5.435804921875,3.426095234375,5.479234921875,3.469529234375Q5.522674921875,3.512962234375,5.5567949218749995,3.564035234375Q5.590924921875,3.615107234375,5.6144349218750005,3.671856234375Q5.637944921875,3.7286052343750002,5.649924921875,3.788849234375Q5.661904921875,3.849093234375,5.661904921875,3.910518234375Z" fill="#1A1B28" fill-opacity="1"/></g><g><path d="M7.3252391406249995,3.910302234375Q7.3252391406249995,3.971706234375,7.313269140625,4.031929234375Q7.301289140625,4.092152234375,7.277789140625,4.148881234375Q7.254289140625,4.205611234375,7.2201791406249995,4.256666234375Q7.186059140625,4.307725234375,7.1426391406250005,4.3511352343750005Q7.099229140625,4.394555234375,7.048170140625,4.4286752343749995Q6.997115140625,4.462785234375,6.940385140625,4.486285234375Q6.883656140625,4.509785234375,6.823433140625,4.521765234375Q6.763209140625,4.5337352343749995,6.701806140625,4.5337352343749995Q6.640403140625,4.5337352343749995,6.580180140625,4.521765234375Q6.519956140625,4.509785234375,6.463227140625,4.486285234375Q6.406498140625,4.462785234375,6.355443140625,4.4286752343749995Q6.304388140625,4.394555234375,6.260969140625,4.3511352343750005Q6.217551140625,4.307725234375,6.183437140625,4.256666234375Q6.149323040625,4.205611234375,6.125825040625,4.148881234375Q6.102327040625,4.092152234375,6.090347940625,4.031929234375Q6.078368723392,3.971706234375,6.078368723392,3.910302234375Q6.078368723392,3.848899234375,6.090347940625,3.788676234375Q6.102327040625,3.728452234375,6.125825040625,3.671723234375Q6.149323040625,3.614994234375,6.183437140625,3.563939234375Q6.217551140625,3.512884234375,6.260969140625,3.469466234375Q6.304388140625,3.426047234375,6.355443140625,3.391933234375Q6.406498140625,3.357819534375,6.463227140625,3.334321534375Q6.519956140625,3.310823534375,6.580180140625,3.298844434375Q6.640403140625,3.286865234375,6.701806140625,3.286865234375Q6.763209140625,3.286865234375,6.823433140625,3.298844434375Q6.883656140625,3.310823534375,6.940385140625,3.334321534375Q6.997115140625,3.357819534375,7.048170140625,3.391933234375Q7.099229140625,3.426047234375,7.1426391406250005,3.469466234375Q7.186059140625,3.512884234375,7.2201791406249995,3.563939234375Q7.254289140625,3.614994234375,7.277789140625,3.671723234375Q7.301289140625,3.728452234375,7.313269140625,3.788676234375Q7.3252391406249995,3.848899234375,7.3252391406249995,3.910302234375Z" fill="#1A1B28" fill-opacity="1"/></g><g><path d="M12.493479296875,6.339701640625L1.4849122968750001,6.339701640625C1.147216296875,6.339701640625,0.873779296875,6.066259640625,0.873779296875,5.728564640625C0.873779296875,5.390869640625,1.147216296875,5.117431640625,1.4849122968750001,5.117431640625L12.493479296875,5.117431640625C12.831179296875,5.117431640625,13.104679296875,5.390869640625,13.104679296875,5.728564640625C13.104679296875,6.064892640625,12.831179296875,6.339701640625,12.493479296875,6.339701640625Z" fill="#1A1B28" fill-opacity="1"/></g></g></svg>